<?xml version="1.0" standalone="no"?>
<!DOCTYPE svg PUBLIC "-//W3C//DTD SVG 20010904//EN"
 "http://www.w3.org/TR/2001/REC-SVG-20010904/DTD/svg10.dtd">
<svg version="1.0" xmlns="http://www.w3.org/2000/svg"
 width="511.266177pt" height="433.473850pt" viewBox="0 0 511.266177 433.473850"
 preserveAspectRatio="xMidYMid meet">
<metadata>
Created by potrace 1.12, written by Peter Selinger 2001-2015
</metadata>
<g transform="translate(-0.107770,472.973850) scale(0.100000,-0.100000)"
fill="#000000" stroke="none">
<path d="M2435 4723 c-214 -29 -413 -129 -567 -284 -183 -184 -280 -412 -281
-664 -1 -144 17 -225 73 -341 22 -44 63 -106 90 -136 l50 -56 0 -412 0 -412
-57 52 c-126 112 -280 194 -453 240 -78 21 -111 24 -412 28 l-328 4 0 -169 0
-168 44 -24 c75 -39 181 -136 250 -228 60 -80 146 -234 146 -262 0 -8 -65 -11
-212 -11 -246 0 -312 -11 -427 -67 -111 -55 -224 -169 -280 -283 -124 -254
-81 -535 114 -734 73 -75 154 -125 260 -163 l80 -28 915 -5 915 -5 61 -37
c113 -67 234 -114 376 -145 77 -17 147 -18 923 -18 l840 0 80 27 c112 38 197
91 279 174 83 82 136 168 173 279 23 70 27 96 27 210 0 114 -4 140 -27 210
-37 111 -90 197 -173 279 -82 83 -167 136 -279 174 l-80 27 -617 3 -618 3 0
725 0 725 56 67 c69 83 118 182 145 292 42 164 14 389 -70 575 -99 217 -322
423 -548 505 -141 50 -329 72 -468 53z m340 -327 c141 -48 256 -133 341 -252
40 -56 94 -167 94 -194 0 -5 -55 -11 -137 -12 l-138 -3 -3 -147 -3 -148 147 0
146 0 -7 -27 c-11 -47 -55 -111 -108 -159 -33 -30 -142 -95 -299 -180 l-247
-133 -223 120 c-123 67 -246 136 -274 154 -72 47 -136 128 -158 203 l-7 22
146 0 146 0 -3 148 -3 147 -138 3 c-159 3 -150 -7 -95 109 82 175 255 315 450
364 107 28 265 21 373 -15z m-445 -1471 l75 -40 3 -338 2 -337 150 0 150 0 2
336 3 336 153 83 152 83 0 -934 0 -934 150 0 150 0 0 150 0 151 598 -3 597 -3
60 -24 c84 -34 183 -133 215 -216 33 -85 33 -215 0 -300 -32 -83 -131 -182
-215 -216 l-60 -24 -810 0 c-809 0 -810 0 -895 23 -361 95 -625 379 -695 744
-13 67 -15 201 -15 834 l0 755 78 -43 c42 -23 111 -61 152 -83z m-1175 -500
c160 -28 299 -97 408 -203 93 -90 171 -217 192 -310 l7 -32 -228 2 -227 3 -22
70 c-42 138 -137 308 -229 414 -63 72 -63 71 -24 71 20 0 75 -7 123 -15z m650
-912 c21 -200 93 -409 194 -559 17 -25 31 -47 31 -50 0 -2 -330 -3 -732 -2
-685 3 -736 4 -781 22 -66 25 -150 105 -184 174 -37 77 -40 201 -6 275 45 96
111 157 211 193 29 10 172 13 648 14 l612 0 7 -67z"/>
</g>
</svg>
