<?xml version="1.0" standalone="no"?>
<!DOCTYPE svg PUBLIC "-//W3C//DTD SVG 20010904//EN"
 "http://www.w3.org/TR/2001/REC-SVG-20010904/DTD/svg10.dtd">
<svg version="1.0" xmlns="http://www.w3.org/2000/svg"
 width="314.143024pt" height="106.232005pt" viewBox="0 0 314.143024 106.232005"
 preserveAspectRatio="xMidYMid meet">
<metadata>
Created by potrace 1.12, written by Peter Selinger 2001-2015
</metadata>
<g transform="translate(-92.138179,314.890940) scale(0.100000,-0.100000)"
fill="#000000" stroke="none">
<path d="M1135 3131 c-50 -30 -125 -118 -152 -177 -39 -86 -53 -149 -60 -269
-10 -182 18 -329 84 -440 26 -44 34 -50 66 -53 24 -2 37 -8 37 -18 0 -8 7 -14
15 -14 8 0 12 -6 10 -12 -3 -7 11 -24 31 -37 l35 -24 142 17 c144 18 211 39
279 87 35 25 67 90 68 135 0 42 -20 95 -33 87 -6 -3 -7 -1 -3 6 5 7 -7 26 -29
48 -36 36 -36 36 -17 57 102 111 55 259 -98 307 -54 17 -86 20 -195 17 l-130
-3 3 35 c3 51 29 114 57 140 40 38 29 87 -25 115 -37 19 -49 19 -85 -4z m-15
-151 c0 -11 -7 -64 -16 -118 -20 -123 -13 -224 27 -380 48 -182 48 -169 -1
-182 -67 -18 -84 -9 -109 59 -33 92 -44 167 -39 286 5 124 33 219 88 305 34
53 50 63 50 30z m355 -302 c18 -16 26 -34 27 -57 1 -45 -22 -61 -88 -61 -48 0
-53 2 -61 28 -5 15 -8 46 -5 70 l4 42 48 0 c36 0 56 -6 75 -22z m16 -279 c26
-42 2 -63 -83 -71 l-48 -5 0 37 c0 20 6 42 13 49 16 17 106 9 118 -10z"/>
<path d="M1924 2570 c-82 -27 -143 -81 -179 -161 -24 -53 -28 -75 -27 -145 1
-95 22 -159 55 -168 12 -3 39 -6 59 -6 31 0 40 5 53 30 17 32 20 106 6 115
-11 6 -5 60 11 115 21 72 84 108 154 89 49 -14 65 -55 65 -171 0 -55 6 -105
14 -125 13 -31 17 -33 60 -33 40 0 47 3 65 33 25 40 28 178 5 254 -44 149
-189 223 -341 173z"/>
<path d="M2532 2580 c-105 -25 -210 -161 -212 -274 0 -65 20 -114 65 -155 72
-66 175 -75 281 -25 29 14 34 14 65 -5 53 -33 88 -28 132 19 20 22 37 44 37
50 0 15 -38 50 -55 50 -12 0 -15 14 -15 70 0 114 -16 169 -63 213 -61 56 -149
78 -235 57z m127 -156 c25 -21 31 -33 31 -65 0 -79 -47 -129 -123 -129 -99 0
-124 114 -43 195 35 35 93 34 135 -1z"/>
<path d="M3165 2584 c-89 -24 -255 -99 -260 -119 -2 -5 -6 -36 -9 -68 -4 -49
-2 -61 15 -75 16 -14 19 -30 19 -98 0 -79 1 -83 31 -108 42 -36 80 -34 119 7
29 30 30 35 23 77 -4 25 -8 73 -8 108 1 58 3 65 36 98 68 68 155 51 179 -34 5
-20 10 -81 10 -134 0 -89 2 -98 22 -112 30 -21 71 -20 90 2 33 37 40 66 40
156 -1 143 -43 230 -134 277 -38 19 -136 32 -173 23z"/>
<path d="M3697 2576 c-102 -37 -187 -158 -187 -268 0 -89 37 -150 115 -191 56
-29 154 -29 212 1 l42 22 33 -20 c41 -25 95 -25 127 -1 31 24 32 82 2 143 -11
25 -21 64 -21 89 0 103 -55 184 -147 219 -62 23 -122 25 -176 6z m160 -163
c47 -58 15 -156 -59 -180 -120 -39 -185 92 -92 185 32 32 38 34 81 29 36 -4
53 -12 70 -34z"/>
</g>
</svg>
